<svg height="451pt" viewBox="0 -15 451.57445 451" width="451pt" xmlns="http://www.w3.org/2000/svg"><path d="m151.785156 283.40625v-144c.007813-6.625 5.375-11.992188 12-12h-10c-6.625.007812-11.992187 5.375-12 12v144c.007813 6.625 5.375 11.992188 12 12h10c-6.625-.007812-11.992187-5.375-12-12zm0 0" fill="#d4e1f4"/><g fill="#0635c9"><path d="m412.8125 140.597656c7.175781-24.320312.417969-50.613281-17.59375-68.457031s-44.371094-24.351563-68.617188-16.945313c3.613282-16.96875-2.753906-34.511718-16.414062-45.207031-13.65625-10.699219-32.214844-12.679687-47.824219-5.101562-15.605469 7.574219-25.53125 23.378906-25.578125 40.730469v74.789062h12v-74.789062c.023438-13.984376 8.753906-26.476563 21.878906-31.296876 13.128907-4.820312 27.867188-.953124 36.9375 9.691407 9.066407 10.644531 10.542969 25.8125 3.695313 38.003906-1.851563 1.117187-3.644531 2.3125-5.398437 3.613281-2.664063 1.972656-3.226563 5.730469-1.253907 8.398438 1.972657 2.664062 5.730469 3.226562 8.398438 1.253906 21.671875-15.972656 51.570312-14.558594 71.640625 3.382812 20.070312 17.941407 24.808594 47.496094 11.359375 70.816407-1.085938 1.855469-1.09375 4.148437-.023438 6.011719 1.074219 1.863281 3.058594 3.011718 5.207031 3.011718 2.148438 0 4.132813-1.152344 5.203126-3.015625.699218-1.214843 1.363281-2.453125 1.988281-3.707031 10.542969 4.605469 18.5 13.644531 21.738281 24.679688 3.234375 11.039062 1.414062 22.945312-4.96875 32.511718-2.609375 3.933594-5.917969 7.355469-9.757812 10.097656-9.988282-5.375-21.15625-8.179687-32.5-8.167968-3.3125 0-6 2.6875-6 6s2.6875 6 6 6c31.402343 0 56.855468 25.457031 56.855468 56.855468 0 31.402344-25.453125 56.859376-56.855468 56.859376-3.3125 0-6 2.683593-6 6-.046876 1.566406.539062 3.089843 1.628906 4.21875 1.089844 1.128906 2.585937 1.769531 4.15625 1.78125 3.710937.023437 7.417968-.289063 11.070312-.941407v15.367188c0 22.636719-18.347656 40.984375-40.980468 40.984375-22.632813 0-40.984376-18.347656-40.984376-40.984375 0-3.289063-2.667968-5.957031-5.957031-5.957031-3.292969 0-5.960937 2.667968-5.960937 5.957031 0 14.414062 5.871094 28.207031 16.261718 38.195312-12.351562 10.019531-29.355468 12.0625-43.730468 5.257813-14.375-6.804688-23.570313-21.257813-23.648438-37.160156v-67.929688h-12v67.929688c.058594 21.042968 12.496094 40.082031 31.742188 48.589843 19.25 8.507813 41.699218 4.894531 57.304687-9.226562 8.144531 4.910156 17.476563 7.5 26.988281 7.492187 29.300782-.046875 53.015626-23.839844 52.964844-53.144531v-18.488281c23.507813-8.347656 40.660156-28.761719 44.824219-53.359375 4.164063-24.597657-5.308594-49.519531-24.761719-65.140625 13.339844-11.449219 19.835938-28.96875 17.183594-46.347656-2.648438-17.378907-14.074219-32.164063-30.21875-39.117188zm0 0"/><path d="m0 279.761719c-.0625 29.136719 18.304688 55.125 45.785156 64.796875v18.488281c-.066406 29.296875 23.636719 53.09375 52.929688 53.144531 9.535156.007813 18.890625-2.582031 27.0625-7.492187 15.597656 14.121093 38.046875 17.734375 57.289062 9.226562 19.242188-8.511719 31.671875-27.550781 31.71875-48.589843v-67.929688h-12v67.929688c-.058594 15.898437-9.238281 30.351562-23.605468 37.160156-14.367188 6.808594-31.367188 4.765625-43.710938-5.253906 10.375-9.996094 16.226562-23.785157 16.210938-38.195313-.042969-3.289063-2.722657-5.933594-6.015626-5.933594-3.289062 0-5.96875 2.644531-6.011718 5.933594.101562 14.695313-7.675782 28.3125-20.382813 35.691406-12.707031 7.375-28.394531 7.375-41.101562 0-12.707031-7.378906-20.484375-20.996093-20.382813-35.691406v-15.367187c3.65625.652343 7.359375.964843 11.070313.941406 1.582031-.003906 3.09375-.640625 4.203125-1.769532 1.105468-1.128906 1.714844-2.652343 1.691406-4.230468-.023438-3.324219-2.730469-6.003906-6.054688-6-31.398437.011718-56.863281-25.4375-56.875-56.835938-.011718-31.402344 25.433594-56.867187 56.835938-56.878906 3.3125-.003906 5.996094-2.691406 5.996094-6.003906-.003906-3.316406-2.691406-6-6.007813-5.996094-11.339843-.011719-22.507812 2.792969-32.5 8.167969-10.402343-7.449219-16.484375-19.539063-16.257812-32.339844.222656-12.796875 6.722656-24.664063 17.382812-31.746094 1.867188-1.234375 3.835938-2.304687 5.886719-3.203125.625 1.253906 1.289062 2.492188 1.992188 3.707032 1.066406 1.867187 3.050781 3.015624 5.203124 3.015624 2.148438.003907 4.132813-1.144531 5.203126-3.007812 1.070312-1.867188 1.0625-4.160156-.019532-6.015625-13.457031-23.316406-8.71875-52.875 11.351563-70.816406 20.070312-17.941407 49.96875-19.355469 71.640625-3.382813 2.664062 1.953125 6.410156 1.382813 8.371094-1.273437 1.964843-2.660157 1.410156-6.40625-1.242188-8.378907-1.757812-1.300781-3.570312-2.5-5.421875-3.613281-6.820313-12.195312-5.328125-27.34375 3.742187-37.976562 9.066407-10.628907 23.792969-14.492188 36.910157-9.679688 13.121093 4.8125 21.855469 17.28125 21.898437 31.253907v74.789062h12v-74.789062c-.023437-17.359376-9.945312-33.183594-25.558594-40.765626-15.609374-7.585937-34.183593-5.605468-47.839843 5.105469-13.660157 10.710938-20.019531 28.269531-16.378907 45.242188-24.253906-7.433594-50.628906-.933594-68.652343 16.914062-18.027344 17.851563-24.785157 44.160157-17.589844 68.484375-16.222656 6.878906-27.722656 21.675782-30.382813 39.09375-2.65625 17.417969 3.90625 34.972656 17.339844 46.375-16.292968 13.054688-25.7617185 32.816406-25.722656 53.695313zm0 0"/><path d="m183.785156 81.40625c0-3.3125-2.683594-6-6-6-3.3125 0-6 2.6875-6 6v17.515625c0 3.3125 2.6875 6 6 6 3.316406 0 6-2.6875 6-6zm0 0"/><path d="m273.785156 104.921875c3.316406 0 6-2.6875 6-6v-17.515625c0-3.3125-2.683594-6-6-6-3.3125 0-6 2.6875-6 6v17.515625c0 3.3125 2.6875 6 6 6zm0 0"/><path d="m177.785156 317.890625c-3.3125 0-6 2.6875-6 6v17.515625c0 3.3125 2.6875 6 6 6 3.316406 0 6-2.6875 6-6v-17.515625c0-3.3125-2.683594-6-6-6zm0 0"/><path d="m267.785156 341.40625c0 3.3125 2.6875 6 6 6 3.316406 0 6-2.6875 6-6v-17.515625c0-3.3125-2.683594-6-6-6-3.3125 0-6 2.6875-6 6zm0 0"/><path d="m338.269531 169.40625h17.515625c3.316406 0 6-2.6875 6-6s-2.683594-6-6-6h-17.515625c-3.3125 0-6 2.6875-6 6s2.6875 6 6 6zm0 0"/><path d="m338.269531 265.40625h17.515625c3.316406 0 6-2.6875 6-6s-2.683594-6-6-6h-17.515625c-3.3125 0-6 2.6875-6 6s2.6875 6 6 6zm0 0"/><path d="m113.300781 157.40625h-17.515625c-3.3125 0-6 2.6875-6 6s2.6875 6 6 6h17.515625c3.3125 0 6-2.6875 6-6s-2.6875-6-6-6zm0 0"/><path d="m113.300781 253.40625h-17.515625c-3.3125 0-6 2.6875-6 6s2.6875 6 6 6h17.515625c3.3125 0 6-2.6875 6-6s-2.6875-6-6-6zm0 0"/></g><path d="m290.785156 140.40625h-130c-3.3125 0-6 2.6875-6 6v130c0 3.3125 2.6875 6 6 6h130c3.316406 0 6-2.6875 6-6v-130c0-3.3125-2.683594-6-6-6zm-6 130h-118v-118h118zm0 0" fill="#1ae5be"/><path d="m297.785156 115.40625h-144c-13.246094.015625-23.984375 10.75-24 24v144c.015625 13.246094 10.753906 23.984375 24 24h144c13.25-.015625 23.984375-10.753906 24-24v-144c-.015625-13.25-10.75-23.984375-24-24zm12 168c-.007812 6.625-5.375 11.992188-12 12h-144c-6.625-.007812-11.992187-5.375-12-12v-144c.007813-6.625 5.375-11.992188 12-12h144c6.625.007812 11.992188 5.375 12 12zm0 0" fill="#1ae5be"/></svg>